<?xml version="1.0"?>
<svg width="640" height="480" xmlns="http://www.w3.org/2000/svg" xmlns:svg="http://www.w3.org/2000/svg">
 <!-- Created with SVG-edit - https://github.com/SVG-Edit/svgedit-->
 <g class="layer">
  <title>Layer 1</title>
  <path d="m532.871092,168.916894c0.461289,-4.582373 0.728351,-9.211744 0.728351,-13.888114c0,-81.119745 -67.930895,-146.870918 -151.739848,-146.870918c-65.041768,0 -120.372186,39.690397 -141.955662,95.383849c-14.299963,-15.180578 -34.693799,-24.885808 -57.588307,-24.885808c-43.166952,0 -78.152091,33.862559 -78.152091,75.644398c0,4.934863 0.558403,9.752229 1.505259,14.4051c-57.588307,9.188245 -101.653559,57.244409 -101.653559,115.569788c0,64.905196 54.359283,117.496734 121.391878,117.496734l82.643591,0l-17.164812,-16.614038c-9.152948,-8.859254 -14.20285,-20.655926 -14.20285,-33.204577c0,-12.525152 5.049902,-24.321824 14.20285,-33.181078l13.498777,-13.089136c9.71135,-9.376239 22.748838,-14.75759 35.713491,-14.75759c0.655516,0 1.311032,0 1.94227,0.046999l0,-11.091692c0,-25.943279 21.801981,-47.045692 48.556751,-47.045692l79.293175,0c26.779048,0 48.556751,21.102413 48.556751,47.045692l0,11.091692c0.655516,-0.046999 1.311032,-0.046999 1.966548,-0.046999c12.940374,0 25.977862,5.38135 35.689212,14.804589l13.523055,12.971639c18.937133,18.35299 18.937133,48.173661 0,66.456153l-17.140533,16.614038l58.340937,0c67.056873,0 121.391878,-52.591538 121.391878,-117.496734c0.024278,-57.596899 -42.851333,-105.300573 -99.347113,-115.358294zm-80.40998,166.422374l-13.498777,-13.042138c-9.468566,-9.141246 -23.404354,-10.574706 -30.979207,-3.219411c-7.574853,7.331796 -13.790117,2.772923 -13.790117,-10.151718l0,-29.092191c0,-12.924641 -10.949547,-23.499347 -24.278376,-23.499347l-79.268896,0c-13.353107,0 -24.278376,10.574706 -24.278376,23.499347l0,29.092191c0,12.924641 -6.215264,17.483514 -13.814396,10.151718c-7.574853,-7.355296 -21.534919,-5.921835 -30.979207,3.219411l-13.498777,13.042138c-9.468566,9.141246 -9.468566,24.063331 -0.024278,33.204577l105.07681,101.775671c4.710005,4.558873 10.949547,6.83831 17.164812,6.83831s12.430528,-2.279437 17.164812,-6.83831l105.052531,-101.775671c9.444288,-9.117747 9.42001,-24.063331 -0.048557,-33.204577z" fill="#3797a4" id="svg_3" stroke="#000000" stroke-width="5"/>
 </g>
</svg>